<?xml version="1.0" standalone="no"?><!DOCTYPE svg PUBLIC "-//W3C//DTD SVG 1.1//EN" 	"http://www.w3.org/Graphics/SVG/1.1/DTD/svg11.dtd"><svg width="1854" height="963" version="1.1"	xmlns="http://www.w3.org/2000/svg"><title>Krona (snapshot) - Mollicutes</title><defs>	<style type="text/css">	text {font-size: 11px; font-family: sans-serif; dominant-baseline:central}	path {stroke-width:0.27499999999999997;}	path.wedge {stroke:none}	path.line {fill:none;stroke:black;}	line {stroke:black;stroke-width:0.27499999999999997;}	line.tick {stroke-width:0.5499999999999999;}	line.pattern {stroke-width:0.18333333333333332;}	circle {fill:none;stroke:black;stroke-width:0.27499999999999997;}	rect {stroke:black;stroke-width:0.27499999999999997;}	.highlight {stroke:black;stroke-width:1.375;}	.searchHighlight {fill:rgb(255, 255, 100);stroke:none;}	</style><pattern id="hiddenPattern" patternUnits="userSpaceOnUse" x="0" y="0" width="6.6" height="6.6"><line class="pattern" x1="0" y1="0" x2="3.3" y2="3.3"/><line class="pattern" x1="3.3" y1="6.6" x2="6.6" y2="3.3"/></pattern></defs><path class="wedge" fill="rgb(220,220,220)" d=" M 852.384171305009,569.4991614301432 L 853.6816225760168,866.696329351036 A 385.2,385.2 0 0,1 852.0000000000001,866.7 L 852,569.5 A 88,88 0 0 0 852.384171305009,569.4991614301432 Z "/><path class="wedge" fill="rgb(208,114,114)" d=" M 852,569.5 L 852,866.7 A 385.2,385.2 0 0,1 752.0491258160746,109.49346410329144 L 829.1659477461437,396.51408318039887 A 88,88 0 0 0 852,569.5 Z "/><path class="wedge" fill="rgb(208,114,114)" d=" M 809.8145804498638,331.6910311482389 L 747.5903518694963,110.72019286743193 A 385.2,385.2 0 0,1 752.0491258160746,109.49346410329144 L 811.6160925992058,331.1953866506652 A 155.63526840356252,155.63526840356252 0 0 0 809.8145804498638,331.6910311482389 Z "/><path class="wedge" fill="rgb(212,127,127)" d=" M 852,637.1352684035626 L 852,866.7 A 385.2,385.2 0 0,1 747.5903518694963,110.72019286743193 L 809.8145804498638,331.6910311482389 A 155.63526840356252,155.63526840356252 0 0 0 852,637.1352684035626 Z "/><path class="wedge" fill="rgb(212,127,127)" d=" M 793.0130081382761,278.82464477827534 L 744.3570224086745,111.6459350294046 A 385.2,385.2 0 0,1 747.5903518694963,110.72019286743193 L 794.7848318360175,278.3173497684545 A 211.08473375198727,211.08473375198727 0 0 0 793.0130081382761,278.82464477827534 Z "/><path class="wedge" fill="rgb(216,140,140)" d=" M 852,692.5847337519873 L 852,866.7 A 385.2,385.2 0 0,1 472.2809049337265,546.2491223264866 L 643.9187329111893,516.9817010564934 A 211.08473375198727,211.08473375198727 0 0 0 852,692.5847337519873 Z "/><path class="wedge" fill="rgb(216,140,140)" d=" M 617.5723870991158,587.7033145714913 L 501.1271220565951,640.4567976643732 A 385.2,385.2 0 0,1 472.2809049337265,546.2491223264866 L 598.2994530924426,524.7606312388556 A 257.3624870030168,257.3624870030168 0 0 0 617.5723870991158,587.7033145714913 Z "/><path class="wedge" fill="rgb(221,153,153)" d=" M 852,738.8624870030168 L 852,866.7 A 385.2,385.2 0 0,1 747.7927018014994,852.3367282270848 L 782.3762995113419,729.2659985684953 A 257.3624870030168,257.3624870030168 0 0 0 852,738.8624870030168 Z "/><path class="wedge" fill="rgb(225,165,165)" d=" M 852,778.0661426141344 L 852,866.7 A 385.2,385.2 0 0,1 813.3875155754046,864.7598544676449 L 822.2721818210005,776.5724212313706 A 296.5661426141344,296.5661426141344 0 0 0 852,778.0661426141344 Z "/><path class="wedge" fill="rgb(225,166,165)" d=" M 822.2721818210005,776.5724212313706 L 813.3875155754046,864.7598544676449 A 385.2,385.2 0 0,1 779.2880703977196,859.7750524334284 L 796.0189603214466,772.7346135704603 A 296.5661426141344,296.5661426141344 0 0 0 822.2721818210005,776.5724212313706 Z "/><path class="wedge" fill="rgb(225,167,165)" d=" M 796.0189603214466,772.7346135704603 L 779.2880703977196,859.7750524334284 A 385.2,385.2 0 0,1 747.7927018014994,852.3367282270848 L 771.7706218614483,767.0078349687244 A 296.5661426141344,296.5661426141344 0 0 0 796.0189603214466,772.7346135704603 Z "/><path class="wedge" fill="rgb(221,156,153)" d=" M 782.3762995113419,729.2659985684953 L 747.7927018014994,852.3367282270848 A 385.2,385.2 0 0,1 656.0421029246922,813.1316368711271 L 721.0752550903884,703.0720218952093 A 257.3624870030168,257.3624870030168 0 0 0 782.3762995113419,729.2659985684953 Z "/><path class="wedge" fill="rgb(221,159,153)" d=" M 721.0752550903884,703.0720218952093 L 656.0421029246922,813.1316368711271 A 385.2,385.2 0 0,1 615.0736438700998,785.2185239181299 L 693.7031249996013,684.4225198973395 A 257.3624870030168,257.3624870030168 0 0 0 721.0752550903884,703.0720218952093 Z "/><path class="wedge" fill="rgb(221,160,153)" d=" M 693.7031249996013,684.4225198973395 L 615.0736438700998,785.2185239181299 A 385.2,385.2 0 0,1 584.911965861664,759.0662479843669 L 673.5512961718879,666.9494805019542 A 257.3624870030168,257.3624870030168 0 0 0 693.7031249996013,684.4225198973395 Z "/><path class="wedge" fill="rgb(221,161,153)" d=" M 673.5512961718879,666.9494805019542 L 584.911965861664,759.0662479843669 A 385.2,385.2 0 0,1 557.7545662719606,730.0933722571822 L 655.4067066107747,647.5919224729365 A 257.3624870030168,257.3624870030168 0 0 0 673.5512961718879,666.9494805019542 Z "/><path class="wedge" fill="rgb(221,163,153)" d=" M 655.4067066107747,647.5919224729365 L 557.7545662719606,730.0933722571822 A 385.2,385.2 0 0,1 538.291864434573,705.0313080533992 L 642.4031517076899,630.847282875546 A 257.3624870030168,257.3624870030168 0 0 0 655.4067066107747,647.5919224729365 Z "/><path class="wedge" fill="rgb(221,164,153)" d=" M 642.4031517076899,630.847282875546 L 538.291864434573,705.0313080533992 A 385.2,385.2 0 0,1 525.6702064034621,686.165350783275 L 633.9702822866404,618.2424290782151 A 257.3624870030168,257.3624870030168 0 0 0 642.4031517076899,630.847282875546 Z "/><path class="wedge" fill="rgb(221,164,153)" d=" M 633.9702822866404,618.2424290782151 L 525.6702064034621,686.165350783275 A 385.2,385.2 0 0,1 514.6879652724758,667.5097611094038 L 626.6327514186822,605.7781275336272 A 257.3624870030168,257.3624870030168 0 0 0 633.9702822866404,618.2424290782151 Z "/><path class="wedge" fill="rgb(221,165,153)" d=" M 626.6327514186822,605.7781275336272 L 514.6879652724758,667.5097611094038 A 385.2,385.2 0 0,1 501.1271220565951,640.4567976643732 L 617.5723870991158,587.7033145714913 A 257.3624870030168,257.3624870030168 0 0 0 626.6327514186822,605.7781275336272 Z "/><path class="wedge" fill="url(#hiddenPattern)" d=" M 626.6327514186822,605.7781275336272 L 514.6879652724758,667.5097611094038 A 385.2,385.2 0 0,1 501.1271220565951,640.4567976643732 L 617.5723870991158,587.7033145714913 A 257.3624870030168,257.3624870030168 0 0 0 626.6327514186822,605.7781275336272 Z "/><path class="wedge" fill="rgb(216,158,140)" d=" M 643.9187329111893,516.9817010564934 L 472.2809049337265,546.2491223264866 A 385.2,385.2 0 0,1 540.6263228090472,254.7281473538121 L 681.371158496289,357.2318895683659 A 211.08473375198727,211.08473375198727 0 0 0 643.9187329111893,516.9817010564934 Z "/><path class="wedge" fill="rgb(221,169,153)" d=" M 598.2994530924426,524.7606312388556 L 472.2809049337265,546.2491223264866 A 385.2,385.2 0 0,1 469.12635529276565,439.22929869757945 L 596.191813577977,453.2578068158032 A 257.3624870030168,257.3624870030168 0 0 0 598.2994530924426,524.7606312388556 Z "/><path class="wedge" fill="rgb(221,172,153)" d=" M 596.191813577977,453.2578068158032 L 469.12635529276565,439.22929869757945 A 385.2,385.2 0 0,1 483.3122974778956,369.92752127440997 L 605.6698233423748,406.9554241798831 A 257.3624870030168,257.3624870030168 0 0 0 596.191813577977,453.2578068158032 Z "/><path class="wedge" fill="rgb(221,174,153)" d=" M 605.6698233423748,406.9554241798831 L 483.3122974778956,369.92752127440997 A 385.2,385.2 0 0,1 504.04636616210075,316.25076793218943 L 619.5228126524953,371.0925406533998 A 257.3624870030168,257.3624870030168 0 0 0 605.6698233423748,406.9554241798831 Z "/><path class="wedge" fill="rgb(221,176,153)" d=" M 619.5228126524953,371.0925406533998 L 504.04636616210075,316.25076793218943 A 385.2,385.2 0 0,1 521.7127448908759,283.28453866441106 L 631.3261957417341,349.0669156495911 A 257.3624870030168,257.3624870030168 0 0 0 619.5228126524953,371.0925406533998 Z "/><path class="wedge" fill="rgb(221,177,153)" d=" M 631.3261957417341,349.0669156495911 L 521.7127448908759,283.28453866441106 A 385.2,385.2 0 0,1 531.0261898589744,268.5332110315019 L 637.5487589804557,339.21115665114405 A 257.3624870030168,257.3624870030168 0 0 0 631.3261957417341,349.0669156495911 Z "/><path class="wedge" fill="rgb(221,178,153)" d=" M 637.5487589804557,339.21115665114405 L 531.0261898589744,268.5332110315019 A 385.2,385.2 0 0,1 540.6263228090472,254.7281473538121 L 643.962866175654,329.98762206826433 A 257.3624870030168,257.3624870030168 0 0 0 637.5487589804557,339.21115665114405 Z "/><path class="wedge" fill="rgb(216,169,140)" d=" M 681.371158496289,357.2318895683659 L 540.6263228090472,254.7281473538121 A 385.2,385.2 0 0,1 690.844428119249,131.63156522517204 L 763.6887824945545,289.77651764623806 A 211.08473375198727,211.08473375198727 0 0 0 681.371158496289,357.2318895683659 Z "/><path class="wedge" fill="rgb(221,178,153)" d=" M 643.962866175654,329.98762206826433 L 540.6263228090472,254.7281473538121 A 385.2,385.2 0 0,1 569.7407821740858,219.37641473476089 L 663.4150200436045,306.36817807370386 A 257.3624870030168,257.3624870030168 0 0 0 643.962866175654,329.98762206826433 Z "/><path class="wedge" fill="rgb(221,180,153)" d=" M 663.4150200436045,306.36817807370386 L 569.7407821740858,219.37641473476089 A 385.2,385.2 0 0,1 594.923309443529,194.63659143673902 L 680.2401442572213,289.8388362980183 A 257.3624870030168,257.3624870030168 0 0 0 663.4150200436045,306.36817807370386 Z "/><path class="wedge" fill="rgb(221,181,153)" d=" M 680.2401442572213,289.8388362980183 L 594.923309443529,194.63659143673902 A 385.2,385.2 0 0,1 611.2804063594564,180.7790043287108 L 691.1687609302028,280.5802093977507 A 257.3624870030168,257.3624870030168 0 0 0 680.2401442572213,289.8388362980183 Z "/><path class="wedge" fill="rgb(221,181,153)" d=" M 691.1687609302028,280.5802093977507 L 611.2804063594564,180.7790043287108 A 385.2,385.2 0 0,1 628.3831050646982,167.85286658492447 L 702.5955342252296,271.94390888610894 A 257.3624870030168,257.3624870030168 0 0 0 691.1687609302028,280.5802093977507 Z "/><path class="wedge" fill="rgb(221,182,153)" d=" M 702.5955342252296,271.94390888610894 L 628.3831050646982,167.85286658492447 A 385.2,385.2 0 0,1 645.1134524240115,156.57386003571787 L 713.7735295648381,264.40810105530124 A 257.3624870030168,257.3624870030168 0 0 0 702.5955342252296,271.94390888610894 Z "/><path class="wedge" fill="rgb(221,183,153)" d=" M 713.7735295648381,264.40810105530124 L 645.1134524240115,156.57386003571787 A 385.2,385.2 0 0,1 659.4910279491372,147.85447600796425 L 723.3795747211726,258.58244591896414 A 257.3624870030168,257.3624870030168 0 0 0 713.7735295648381,264.40810105530124 Z "/><path class="wedge" fill="rgb(221,183,153)" d=" M 723.3795747211726,258.58244591896414 L 659.4910279491372,147.85447600796425 A 385.2,385.2 0 0,1 690.844428119249,131.63156522517204 L 744.3276251982775,247.74348261292187 A 257.3624870030168,257.3624870030168 0 0 0 723.3795747211726,258.58244591896414 Z "/><path class="wedge" fill="url(#hiddenPattern)" d=" M 723.3795747211726,258.58244591896414 L 659.4910279491372,147.85447600796425 A 385.2,385.2 0 0,1 690.844428119249,131.63156522517204 L 744.3276251982775,247.74348261292187 A 257.3624870030168,257.3624870030168 0 0 0 723.3795747211726,258.58244591896414 Z "/><path class="wedge" fill="rgb(216,175,140)" d=" M 763.6887824945545,289.77651764623806 L 690.844428119249,131.63156522517204 A 385.2,385.2 0 0,1 744.3570224086745,111.6459350294046 L 793.0130081382761,278.82464477827534 A 211.08473375198727,211.08473375198727 0 0 0 763.6887824945545,289.77651764623806 Z "/><path class="wedge" fill="rgb(216,175,140)" d=" M 779.2721313904997,234.62734690959138 L 743.146626244519,112.00036126939239 A 385.2,385.2 0 0,1 744.3570224086745,111.6459350294046 L 780.0808296435267,234.39054519987596 A 257.3624870030168,257.3624870030168 0 0 0 779.2721313904997,234.62734690959138 Z "/><path class="wedge" fill="rgb(221,184,153)" d=" M 744.3276251982775,247.74348261292187 L 690.844428119249,131.63156522517204 A 385.2,385.2 0 0,1 716.639172124703,120.86654858857838 L 761.5617878899955,240.55108527589542 A 257.3624870030168,257.3624870030168 0 0 0 744.3276251982775,247.74348261292187 Z "/><path class="wedge" fill="rgb(221,185,153)" d=" M 761.5617878899955,240.55108527589542 L 716.639172124703,120.86654858857838 A 385.2,385.2 0 0,1 743.146626244519,112.00036126939239 L 779.2721313904997,234.62734690959138 A 257.3624870030168,257.3624870030168 0 0 0 761.5617878899955,240.55108527589542 Z "/><path class="wedge" fill="rgb(114,208,114)" d=" M 829.1659477461437,396.51408318039887 L 752.0491258160746,109.49346410329144 A 385.2,385.2 0 0,1 1217.7051612257424,602.490805654206 L 935.5463504357874,509.140682496288 A 88,88 0 0 0 829.1659477461437,396.51408318039887 Z "/><path class="wedge" fill="rgb(114,208,114)" d=" M 829.1659477461437,396.51408318039887 L 752.0491258160746,109.49346410329144 A 385.2,385.2 0 0,1 1217.7051612257424,602.490805654206 L 935.5463504357874,509.140682496288 A 88,88 0 0 0 829.1659477461437,396.51408318039887 Z "/><path class="wedge" fill="rgb(114,208,114)" d=" M 999.7852757288125,530.3041908938956 L 1217.771131406585,602.2912224855215 A 385.2,385.2 0 0,1 1217.7051612257424,602.490805654206 L 999.7586212978622,530.3848299905391 A 155.63526840356252,155.63526840356252 0 0 0 999.7852757288125,530.3041908938956 Z "/><path class="wedge" fill="rgb(127,212,127)" d=" M 811.6160925992058,331.1953866506652 L 752.0491258160746,109.49346410329144 A 385.2,385.2 0 0,1 1048.1388391442013,149.97534664950615 L 931.2474581375154,347.5515877294856 A 155.63526840356252,155.63526840356252 0 0 0 811.6160925992058,331.1953866506652 Z "/><path class="wedge" fill="rgb(127,212,127)" d=" M 955.8921289796493,297.7523731875068 L 1041.5885475544683,146.18638167204261 A 385.2,385.2 0 0,1 1048.1388391442013,149.97534664950615 L 959.4816060207103,299.8286781290009 A 211.08473375198727,211.08473375198727 0 0 0 955.8921289796493,297.7523731875068 Z "/><path class="wedge" fill="rgb(140,216,140)" d=" M 797.2281836308612,277.64511790302225 L 752.0491258160746,109.49346410329144 A 385.2,385.2 0 0,1 900.8455532232358,99.40949772296614 L 878.7667460983781,272.11923171778096 A 211.08473375198727,211.08473375198727 0 0 0 797.2281836308612,277.64511790302225 Z "/><path class="wedge" fill="rgb(140,216,147)" d=" M 878.7667460983781,272.11923171778096 L 900.8455532232358,99.40949772296614 A 385.2,385.2 0 0,1 1041.5885475544683,146.18638167204261 L 955.8921289796493,297.7523731875068 A 211.08473375198727,211.08473375198727 0 0 0 878.7667460983781,272.11923171778096 Z "/><path class="wedge" fill="rgb(127,212,143)" d=" M 931.2474581375154,347.5515877294856 L 1048.1388391442013,149.97534664950615 A 385.2,385.2 0 0,1 1187.0546603784524,291.4541777394724 L 987.3746676995454,404.7143495418148 A 155.63526840356252,155.63526840356252 0 0 0 931.2474581375154,347.5515877294856 Z "/><path class="wedge" fill="rgb(127,212,143)" d=" M 931.2474581375154,347.5515877294856 L 1048.1388391442013,149.97534664950615 A 385.2,385.2 0 0,1 1187.0546603784524,291.4541777394724 L 987.3746676995454,404.7143495418148 A 155.63526840356252,155.63526840356252 0 0 0 931.2474581375154,347.5515877294856 Z "/><path class="wedge" fill="rgb(127,212,153)" d=" M 987.3746676995454,404.7143495418148 L 1187.0546603784524,291.4541777394724 A 385.2,385.2 0 0,1 1235.6490288568004,446.96794739327163 L 1007.0086178060599,467.54775369684813 A 155.63526840356252,155.63526840356252 0 0 0 987.3746676995454,404.7143495418148 Z "/><path class="wedge" fill="rgb(127,212,153)" d=" M 987.3746676995454,404.7143495418148 L 1187.0546603784524,291.4541777394724 A 385.2,385.2 0 0,1 1235.6490288568004,446.96794739327163 L 1007.0086178060599,467.54775369684813 A 155.63526840356252,155.63526840356252 0 0 0 987.3746676995454,404.7143495418148 Z "/><path class="wedge" fill="rgb(127,212,161)" d=" M 1007.0086178060599,467.54775369684813 L 1235.6490288568004,446.96794739327163 A 385.2,385.2 0 0,1 1217.771131406585,602.2912224855215 L 999.7852757288125,530.3041908938956 A 155.63526840356252,155.63526840356252 0 0 0 1007.0086178060599,467.54775369684813 Z "/><path class="wedge" fill="rgb(127,212,161)" d=" M 1054.5946936934188,540.763436539043 L 1221.706869007386,589.647450310932 A 385.2,385.2 0 0,1 1217.771131406585,602.2912224855215 L 1052.4379592085206,547.6920639614054 A 211.08473375198727,211.08473375198727 0 0 0 1054.5946936934188,540.763436539043 Z "/><path class="wedge" fill="rgb(140,216,170)" d=" M 1062.2348211589986,462.5768714164048 L 1235.6490288568004,446.96794739327163 A 385.2,385.2 0 0,1 1232.100920944616,543.9686313044766 L 1060.29050284652,515.7320207859723 A 211.08473375198727,211.08473375198727 0 0 0 1062.2348211589986,462.5768714164048 Z "/><path class="wedge" fill="rgb(153,221,180)" d=" M 1108.3262414404942,458.4282062819662 L 1235.6490288568004,446.96794739327163 A 385.2,385.2 0 0,1 1237.1999856615048,481.39489825645717 L 1109.3624774230823,481.42977869650434 A 257.3624870030168,257.3624870030168 0 0 0 1108.3262414404942,458.4282062819662 Z "/><path class="wedge" fill="rgb(153,221,181)" d=" M 1109.3624774230823,481.42977869650434 L 1237.1999856615048,481.39489825645717 A 385.2,385.2 0 0,1 1235.6678158604489,515.8226903501568 L 1108.3387935432518,504.4319131597892 A 257.3624870030168,257.3624870030168 0 0 0 1109.3624774230823,481.42977869650434 Z "/><path class="wedge" fill="rgb(153,221,183)" d=" M 1108.3387935432518,504.4319131597892 L 1235.6678158604489,515.8226903501568 A 385.2,385.2 0 0,1 1232.100920944616,543.9686313044766 L 1105.9556550530724,523.2369738115125 A 257.3624870030168,257.3624870030168 0 0 0 1108.3387935432518,504.4319131597892 Z "/><path class="wedge" fill="rgb(140,216,175)" d=" M 1060.29050284652,515.7320207859723 L 1232.100920944616,543.9686313044766 A 385.2,385.2 0 0,1 1225.1535832563818,577.0795129874729 L 1056.4834495593805,533.8763656570751 A 211.08473375198727,211.08473375198727 0 0 0 1060.29050284652,515.7320207859723 Z "/><path class="wedge" fill="rgb(140,216,175)" d=" M 1060.29050284652,515.7320207859723 L 1232.100920944616,543.9686313044766 A 385.2,385.2 0 0,1 1225.1535832563818,577.0795129874729 L 1056.4834495593805,533.8763656570751 A 211.08473375198727,211.08473375198727 0 0 0 1060.29050284652,515.7320207859723 Z "/><path class="wedge" fill="rgb(127,212,168)" d=" M 1056.4834495593805,533.8763656570751 L 1225.1535832563818,577.0795129874729 A 385.2,385.2 0 0,1 1221.706869007386,589.647450310932 L 1054.5946936934188,540.763436539043 A 211.08473375198727,211.08473375198727 0 0 0 1056.4834495593805,533.8763656570751 Z "/><path class="wedge" fill="url(#hiddenPattern)" d=" M 1056.4834495593805,533.8763656570751 L 1225.1535832563818,577.0795129874729 A 385.2,385.2 0 0,1 1221.706869007386,589.647450310932 L 1054.5946936934188,540.763436539043 A 211.08473375198727,211.08473375198727 0 0 0 1056.4834495593805,533.8763656570751 Z "/><path class="wedge" fill="rgb(114,114,208)" d=" M 935.5463504357874,509.140682496288 L 1217.7051612257424,602.490805654206 A 385.2,385.2 0 0,1 853.6816225760168,866.696329351036 L 852.384171305009,569.4991614301432 A 88,88 0 0 0 935.5463504357874,509.140682496288 Z "/><path class="wedge" fill="rgb(114,114,208)" d=" M 853.6136430876562,637.1269029667898 L 855.9937947467887,866.6792953982865 A 385.2,385.2 0 0,1 853.6816225760168,866.696329351036 L 852.6794386837275,637.1337853235087 A 155.63526840356252,155.63526840356252 0 0 0 853.6136430876562,637.1269029667898 Z "/><path class="wedge" fill="rgb(127,127,212)" d=" M 999.7586212978622,530.3848299905391 L 1217.7051612257424,602.490805654206 A 385.2,385.2 0 0,1 911.4591037187378,862.0833088628092 L 876.023711231311,635.2699517777239 A 155.63526840356252,155.63526840356252 0 0 0 999.7586212978622,530.3848299905391 Z "/><path class="wedge" fill="rgb(127,127,212)" d=" M 884.6966411291577,690.0370338381613 L 911.6667790184658,862.0508053881395 A 385.2,385.2 0 0,1 911.4591037187378,862.0833088628092 L 884.5828376884775,690.0548453316626 A 211.08473375198727,211.08473375198727 0 0 0 884.6966411291577,690.0370338381613 Z "/><path class="wedge" fill="rgb(140,140,216)" d=" M 1052.401808382823,547.8014330165018 L 1217.7051612257424,602.490805654206 A 385.2,385.2 0 0,1 911.6667790184658,862.0508053881395 L 884.6966411291577,690.0370338381613 A 211.08473375198727,211.08473375198727 0 0 0 1052.401808382823,547.8014330165018 Z "/><path class="wedge" fill="rgb(140,140,216)" d=" M 945.7168374255023,721.1927285074371 L 992.2680172883172,840.2532903347429 A 385.2,385.2 0 0,1 911.6667790184658,862.0508053881395 L 891.8649808921386,735.7562349576651 A 257.3624870030168,257.3624870030168 0 0 0 945.7168374255023,721.1927285074371 Z "/><path class="wedge" fill="rgb(153,153,221)" d=" M 1096.337460547498,562.3372135193799 L 1217.7051612257424,602.490805654206 A 385.2,385.2 0 0,1 1195.2204845089686,656.3677758005427 L 1081.31484289618,598.3338672811881 A 257.3624870030168,257.3624870030168 0 0 0 1096.337460547498,562.3372135193799 Z "/><path class="wedge" fill="rgb(157,153,221)" d=" M 1081.31484289618,598.3338672811881 L 1195.2204845089686,656.3677758005427 A 385.2,385.2 0 0,1 1164.8519822574951,706.2280071498787 L 1061.0248292253702,631.6468297490253 A 257.3624870030168,257.3624870030168 0 0 0 1081.31484289618,598.3338672811881 Z "/><path class="wedge" fill="rgb(161,153,221)" d=" M 1061.0248292253702,631.6468297490253 L 1164.8519822574951,706.2280071498787 A 385.2,385.2 0 0,1 1133.399461969862,744.5463510544713 L 1040.0105539301,657.2483465847542 A 257.3624870030168,257.3624870030168 0 0 0 1061.0248292253702,631.6468297490253 Z "/><path class="wedge" fill="rgb(164,153,221)" d=" M 1040.0105539301,657.2483465847542 L 1133.399461969862,744.5463510544713 A 385.2,385.2 0 0,1 1098.9033196997316,777.1649974570073 L 1016.962752874413,679.0417421216927 A 257.3624870030168,257.3624870030168 0 0 0 1040.0105539301,657.2483465847542 Z "/><path class="wedge" fill="rgb(164,153,221)" d=" M 1040.0105539301,657.2483465847542 L 1133.399461969862,744.5463510544713 A 385.2,385.2 0 0,1 1098.9033196997316,777.1649974570073 L 1016.962752874413,679.0417421216927 A 257.3624870030168,257.3624870030168 0 0 0 1040.0105539301,657.2483465847542 Z "/><path class="wedge" fill="rgb(167,153,221)" d=" M 1016.962752874413,679.0417421216927 L 1098.9033196997316,777.1649974570073 A 385.2,385.2 0 0,1 1069.2389322245078,799.5979193989733 L 997.1431772356675,694.02978101507 A 257.3624870030168,257.3624870030168 0 0 0 1016.962752874413,679.0417421216927 Z "/><path class="wedge" fill="rgb(170,153,221)" d=" M 997.1431772356675,694.02978101507 L 1069.2389322245078,799.5979193989733 A 385.2,385.2 0 0,1 1037.5494105394555,819.0654843855643 L 975.9705549282918,707.0365851190209 A 257.3624870030168,257.3624870030168 0 0 0 997.1431772356675,694.02978101507 Z "/><path class="wedge" fill="rgb(173,153,221)" d=" M 975.9705549282918,707.0365851190209 L 1037.5494105394555,819.0654843855643 A 385.2,385.2 0 0,1 1020.5645142915191,827.8597039519237 L 964.6224886254437,712.9122398927718 A 257.3624870030168,257.3624870030168 0 0 0 975.9705549282918,707.0365851190209 Z "/><path class="wedge" fill="rgb(175,153,221)" d=" M 964.6224886254437,712.9122398927718 L 1020.5645142915191,827.8597039519237 A 385.2,385.2 0 0,1 992.2680172883172,840.2532903347429 L 945.7168374255023,721.1927285074371 A 257.3624870030168,257.3624870030168 0 0 0 964.6224886254437,712.9122398927718 Z "/><path class="wedge" fill="url(#hiddenPattern)" d=" M 964.6224886254437,712.9122398927718 L 1020.5645142915191,827.8597039519237 A 385.2,385.2 0 0,1 992.2680172883172,840.2532903347429 L 945.7168374255023,721.1927285074371 A 257.3624870030168,257.3624870030168 0 0 0 964.6224886254437,712.9122398927718 Z "/><path class="wedge" fill="rgb(164,127,212)" d=" M 876.023711231311,635.2699517777239 L 911.4591037187378,862.0833088628092 A 385.2,385.2 0 0,1 855.9937947467887,866.6792953982865 L 853.6136430876562,637.1269029667898 A 155.63526840356252,155.63526840356252 0 0 0 876.023711231311,635.2699517777239 Z "/><path class="wedge" fill="rgb(164,127,212)" d=" M 876.023711231311,635.2699517777239 L 911.4591037187378,862.0833088628092 A 385.2,385.2 0 0,1 855.9937947467887,866.6792953982865 L 853.6136430876562,637.1269029667898 A 155.63526840356252,155.63526840356252 0 0 0 876.023711231311,635.2699517777239 Z "/><path class="wedge" fill="rgb(164,127,212)" d=" M 854.303731401293,692.5721621739306 L 856.2039863329042,866.6770586352629 A 385.2,385.2 0 0,1 855.9937947467887,866.6792953982865 L 854.1885490674609,692.5733878918104 A 211.08473375198727,211.08473375198727 0 0 0 854.303731401293,692.5721621739306 Z "/><path class="wedge" fill="rgb(173,140,216)" d=" M 884.5828376884775,690.0548453316626 L 911.4591037187378,862.0833088628092 A 385.2,385.2 0 0,1 856.2039863329042,866.6770586352629 L 854.303731401293,692.5721621739306 A 211.08473375198727,211.08473375198727 0 0 0 884.5828376884775,690.0548453316626 Z "/><circle cx="852" cy="481.5" r="88"/><circle cx="852" cy="481.5" r="385.2"/><text x="852" y="481.5" text-anchor="middle" style="font-color:black;font-weight:bold" transform="rotate(360,852,481.5)">Mollicutes</text><rect fill="rgb(220,220,220)" x="1817.555" y="926.555" width="22" height="22"/><path class="line" d="M 852.8408132910811,866.6990823366659 L 852.9984657831587,938.9239102747907 A 457.42499999999995,457.42499999999995 0 0,0 887.3760879691357,937.555 L 1309.425,937.555 L 1674.2216666666668,937.555"/><text x="1810.2216666666668" y="937.555" style="font-color:black;font-weight:normal" text-anchor="end">[other Mollicutes]&#160;&#160;&#160;0.07%</text><path class="line" d=" M 829.1659477461437,396.51408318039887 A 88,88 0 0 0 852,569.5"/><line x1="752.0491258160746" y1="109.49346410329144" x2="829.1659477461437" y2="396.51408318039887"/><text x="852" y="603.3176342017813" text-anchor="middle" style="font-color:black;font-weight:normal" transform="rotate(82.480458572173,852,481.5)">Mycoplasmatales</text><path class="line" d=" M 809.8145804498638,331.6910311482389 A 155.63526840356252,155.63526840356252 0 0 0 852,637.1352684035626"/><line x1="747.5903518694963" y1="110.72019286743193" x2="809.8145804498638" y2="331.6910311482389"/><text x="852" y="653.7701080080899" text-anchor="middle" style="font-color:black;font-weight:normal" transform="rotate(82.13652944241792,852,481.5)">Mycoplasmataceae</text><path class="line" d=" M 643.9187329111893,516.9817010564934 A 211.08473375198727,211.08473375198727 0 0 0 852,692.5847337519873"/><line x1="472.2809049337265" y1="546.2491223264866" x2="643.9187329111893" y2="516.9817010564934"/><text x="852" y="706.4680597272961" text-anchor="middle" style="font-color:black;font-weight:normal" transform="rotate(40.16154247003648,852,481.5)">Mycoplasma</text><path class="line" d=" M 782.3762995113419,729.2659985684953 A 257.3624870030168,257.3624870030168 0 0 0 852,738.8624870030168"/><line x1="747.7927018014994" y1="852.3367282270848" x2="782.3762995113419" y2="729.2659985684953"/><text x="852" y="750.623583686352" text-anchor="middle" style="font-color:black;font-weight:normal" transform="rotate(7.847837415320487,852,481.5)">Mycoplasma mycoides group</text><path class="line" d=" M 822.2721818210005,776.5724212313706 A 296.5661426141344,296.5661426141344 0 0 0 852,778.0661426141344"/><line x1="813.3875155754046" y1="864.7598544676449" x2="822.2721818210005" y2="776.5724212313706"/><text x="511.11692869293285" y="481.5" text-anchor="end" style="font-color:black;font-weight:normal" transform="rotate(-87.12350182386659,852,481.5)">Mycoplasma mycoides&#160;&#160;&#160;2%</text><path class="line" d=" M 796.0189603214466,772.7346135704603 A 296.5661426141344,296.5661426141344 0 0 0 822.2721818210005,776.5724212313706"/><line x1="779.2880703977196" y1="859.7750524334284" x2="796.0189603214466" y2="772.7346135704603"/><text x="511.11692869293285" y="481.5" text-anchor="end" style="font-color:black;font-weight:normal" transform="rotate(-81.68316831683167,852,481.5)">Mycoplasma capricolum&#160;&#160;&#160;1%</text><path class="line" d=" M 771.7706218614483,767.0078349687244 A 296.5661426141344,296.5661426141344 0 0 0 796.0189603214466,772.7346135704603"/><text x="511.11692869293285" y="481.5" text-anchor="end" style="font-color:black;font-weight:normal" transform="rotate(-76.71182907764461,852,481.5)">Mycoplasma leachii&#160;&#160;&#160;1%</text><path class="line" d=" M 721.0752550903884,703.0720218952093 A 257.3624870030168,257.3624870030168 0 0 0 782.3762995113419,729.2659985684953"/><line x1="656.0421029246922" y1="813.1316368711271" x2="721.0752550903884" y2="703.0720218952093"/><text x="530.7187564984916" y="481.5" text-anchor="end" style="font-color:black;font-weight:normal" transform="rotate(-66.86294945284001,852,481.5)">Mycoplasma crocodyli&#160;&#160;&#160;4%</text><path class="line" d=" M 693.7031249996013,684.4225198973395 A 257.3624870030168,257.3624870030168 0 0 0 721.0752550903884,703.0720218952093"/><line x1="615.0736438700998" y1="785.2185239181299" x2="693.7031249996013" y2="684.4225198973395"/><text x="530.7187564984916" y="481.5" text-anchor="end" style="font-color:black;font-weight:normal" transform="rotate(-55.73215216258469,852,481.5)">Mycoplasma yeatsii&#160;&#160;&#160;2%</text><path class="line" d=" M 673.5512961718879,666.9494805019542 A 257.3624870030168,257.3624870030168 0 0 0 693.7031249996013,684.4225198973395"/><line x1="584.911965861664" y1="759.0662479843669" x2="673.5512961718879" y2="666.9494805019542"/><text x="530.7187564984916" y="481.5" text-anchor="end" style="font-color:black;font-weight:normal" transform="rotate(-49.07243355914541,852,481.5)">Mycoplasma wenyonii&#160;&#160;&#160;2%</text><path class="line" d=" M 655.4067066107747,647.5919224729365 A 257.3624870030168,257.3624870030168 0 0 0 673.5512961718879,666.9494805019542"/><line x1="557.7545662719606" y1="730.0933722571822" x2="655.4067066107747" y2="647.5919224729365"/><text x="530.7187564984916" y="481.5" text-anchor="end" style="font-color:black;font-weight:normal" transform="rotate(-43.147472642001055,852,481.5)">Mycoplasma parvum&#160;&#160;&#160;2%</text><path class="line" d=" M 642.4031517076899,630.847282875546 A 257.3624870030168,257.3624870030168 0 0 0 655.4067066107747,647.5919224729365"/><line x1="538.291864434573" y1="705.0313080533992" x2="642.4031517076899" y2="630.847282875546"/><text x="530.7187564984916" y="481.5" text-anchor="end" style="font-color:black;font-weight:normal" transform="rotate(-37.83220427305889,852,481.5)">Mycoplasma ovis&#160;&#160;&#160;1%</text><path class="line" d=" M 633.9702822866404,618.2424290782151 A 257.3624870030168,257.3624870030168 0 0 0 642.4031517076899,630.847282875546"/><line x1="525.6702064034621" y1="686.165350783275" x2="633.9702822866404" y2="618.2424290782151"/><text x="530.7187564984916" y="481.5" text-anchor="end" style="font-color:black;font-weight:normal" transform="rotate(-33.783220427305885,852,481.5)">Mycoplasma putrefaciens&#160;&#160;&#160;0.9%</text><path class="line" d=" M 626.6327514186822,605.7781275336272 A 257.3624870030168,257.3624870030168 0 0 0 633.9702822866404,618.2424290782151"/><line x1="514.6879652724758" y1="667.5097611094038" x2="626.6327514186822" y2="605.7781275336272"/><text x="530.7187564984916" y="481.5" text-anchor="end" style="font-color:black;font-weight:normal" transform="rotate(-30.484627410109436,852,481.5)">Mycoplasma suis&#160;&#160;&#160;0.9%</text><line x1="1228.95" y1="481.5" x2="1245.45" y2="481.5" class="tick" transform="rotate(153.37675872850443,852,481.5)"/><text x="455.8" y="481.5" text-anchor="end" style="font-color:black;font-weight:normal" transform="rotate(-26.623241271495573,852,481.5)">2 more</text><path class="line" d=" M 617.5723870991158,587.7033145714913 A 257.3624870030168,257.3624870030168 0 0 0 626.6327514186822,605.7781275336272"/><line x1="501.1271220565951" y1="640.4567976643732" x2="617.5723870991158" y2="587.7033145714913"/><path class="line" d=" M 681.371158496289,357.2318895683659 A 211.08473375198727,211.08473375198727 0 0 0 643.9187329111893,516.9817010564934"/><line x1="540.6263228090472" y1="254.7281473538121" x2="681.371158496289" y2="357.2318895683659"/><text x="852" y="238.0208389722921" text-anchor="middle" style="font-color:black;font-weight:normal" transform="rotate(283.1943720687858,852,481.5)">Mesomycoplasma</text><path class="line" d=" M 596.191813577977,453.2578068158032 A 257.3624870030168,257.3624870030168 0 0 0 598.2994530924426,524.7606312388556"/><line x1="469.12635529276565" y1="439.22929869757945" x2="596.191813577977" y2="453.2578068158032"/><text x="530.7187564984916" y="481.5" text-anchor="end" style="font-color:black;font-weight:normal" transform="rotate(-1.6883793642522098,852,481.5)">Mesomycoplasma dispar&#160;&#160;&#160;4%</text><path class="line" d=" M 605.6698233423748,406.9554241798831 A 257.3624870030168,257.3624870030168 0 0 0 596.191813577977,453.2578068158032"/><line x1="483.3122974778956" y1="369.92752127440997" x2="605.6698233423748" y2="406.9554241798831"/><text x="530.7187564984916" y="481.5" text-anchor="end" style="font-color:black;font-weight:normal" transform="rotate(11.568525273580004,852,481.5)">Mesomycoplasma flocculare&#160;&#160;&#160;3%</text><path class="line" d=" M 619.5228126524953,371.0925406533998 A 257.3624870030168,257.3624870030168 0 0 0 605.6698233423748,406.9554241798831"/><line x1="504.04636616210075" y1="316.25076793218943" x2="619.5228126524953" y2="371.0925406533998"/><text x="530.7187564984916" y="481.5" text-anchor="end" style="font-color:black;font-weight:normal" transform="rotate(21.12037519541429,852,481.5)">Mesomycoplasma mobile&#160;&#160;&#160;2%</text><path class="line" d=" M 631.3261957417341,349.0669156495911 A 257.3624870030168,257.3624870030168 0 0 0 619.5228126524953,371.0925406533998"/><line x1="521.7127448908759" y1="283.28453866441106" x2="631.3261957417341" y2="349.0669156495911"/><text x="530.7187564984916" y="481.5" text-anchor="end" style="font-color:black;font-weight:normal" transform="rotate(28.18655549765502,852,481.5)">Mesomycoplasma bovoculi&#160;&#160;&#160;2%</text><path class="line" d=" M 637.5487589804557,339.21115665114405 A 257.3624870030168,257.3624870030168 0 0 0 631.3261957417341,349.0669156495911"/><line x1="531.0261898589744" y1="268.5332110315019" x2="637.5487589804557" y2="339.21115665114405"/><text x="530.7187564984916" y="481.5" text-anchor="end" style="font-color:black;font-weight:normal" transform="rotate(32.2668056279312,852,481.5)">Mesomycoplasma hyopneumoniae&#160;&#160;&#160;0.7%</text><path class="line" d=" M 643.962866175654,329.98762206826433 A 257.3624870030168,257.3624870030168 0 0 0 637.5487589804557,339.21115665114405"/><text x="530.7187564984916" y="481.5" text-anchor="end" style="font-color:black;font-weight:normal" transform="rotate(34.815007816571125,852,481.5)">Mesomycoplasma hyorhinis&#160;&#160;&#160;0.7%</text><path class="line" d=" M 763.6887824945545,289.77651764623806 A 211.08473375198727,211.08473375198727 0 0 0 681.371158496289,357.2318895683659"/><line x1="690.844428119249" y1="131.63156522517204" x2="763.6887824945545" y2="289.77651764623806"/><text x="852" y="256.5319402727039" text-anchor="middle" style="font-color:black;font-weight:normal" transform="rotate(320.66701406982804,852,481.5)">Mycoplasmopsis</text><path class="line" d=" M 663.4150200436045,306.36817807370386 A 257.3624870030168,257.3624870030168 0 0 0 643.962866175654,329.98762206826433"/><line x1="569.7407821740858" y1="219.37641473476089" x2="663.4150200436045" y2="306.36817807370386"/><text x="530.7187564984916" y="481.5" text-anchor="end" style="font-color:black;font-weight:normal" transform="rotate(39.47368421052631,852,481.5)">Mycoplasmopsis arginini&#160;&#160;&#160;2%</text><path class="line" d=" M 680.2401442572213,289.8388362980183 A 257.3624870030168,257.3624870030168 0 0 0 663.4150200436045,306.36817807370386"/><line x1="594.923309443529" y1="194.63659143673902" x2="680.2401442572213" y2="289.8388362980183"/><text x="530.7187564984916" y="481.5" text-anchor="end" style="font-color:black;font-weight:normal" transform="rotate(45.50807712350183,852,481.5)">Mycoplasmopsis fermentans&#160;&#160;&#160;1%</text><path class="line" d=" M 691.1687609302028,280.5802093977507 A 257.3624870030168,257.3624870030168 0 0 0 680.2401442572213,289.8388362980183"/><line x1="611.2804063594564" y1="180.7790043287108" x2="691.1687609302028" y2="280.5802093977507"/><text x="530.7187564984916" y="481.5" text-anchor="end" style="font-color:black;font-weight:normal" transform="rotate(49.72902553413238,852,481.5)">Mycoplasmopsis bovis&#160;&#160;&#160;0.9%</text><path class="line" d=" M 702.5955342252296,271.94390888610894 A 257.3624870030168,257.3624870030168 0 0 0 691.1687609302028,280.5802093977507"/><line x1="628.3831050646982" y1="167.85286658492447" x2="702.5955342252296" y2="271.94390888610894"/><text x="530.7187564984916" y="481.5" text-anchor="end" style="font-color:black;font-weight:normal" transform="rotate(52.918186555497634,852,481.5)">Mycoplasmopsis agalactiae&#160;&#160;&#160;0.9%</text><path class="line" d=" M 713.7735295648381,264.40810105530124 A 257.3624870030168,257.3624870030168 0 0 0 702.5955342252296,271.94390888610894"/><line x1="645.1134524240115" y1="156.57386003571787" x2="713.7735295648381" y2="264.40810105530124"/><text x="530.7187564984916" y="481.5" text-anchor="end" style="font-color:black;font-weight:normal" transform="rotate(56.01354872329336,852,481.5)">Mycoplasmopsis pulmonis&#160;&#160;&#160;0.8%</text><path class="line" d=" M 723.3795747211726,258.58244591896414 A 257.3624870030168,257.3624870030168 0 0 0 713.7735295648381,264.40810105530124"/><line x1="659.4910279491372" y1="147.85447600796425" x2="723.3795747211726" y2="258.58244591896414"/><text x="530.7187564984916" y="481.5" text-anchor="end" style="font-color:black;font-weight:normal" transform="rotate(58.76498176133404,852,481.5)">Mycoplasmopsis californica&#160;&#160;&#160;0.7%</text><line x1="1228.95" y1="481.5" x2="1245.45" y2="481.5" class="tick" transform="rotate(242.6420010422095,852,481.5)"/><text x="455.8" y="481.5" text-anchor="end" style="font-color:black;font-weight:normal" transform="rotate(62.64200104220949,852,481.5)">3 more</text><path class="line" d=" M 744.3276251982775,247.74348261292187 A 257.3624870030168,257.3624870030168 0 0 0 723.3795747211726,258.58244591896414"/><path class="line" d=" M 793.0130081382761,278.82464477827534 A 211.08473375198727,211.08473375198727 0 0 0 763.6887824945545,289.77651764623806"/><line x1="744.3570224086745" y1="111.6459350294046" x2="793.0130081382761" y2="278.82464477827534"/><text x="852" y="238.0208389722921" text-anchor="middle" style="font-color:black;font-weight:normal" transform="rotate(339.52058363731106,852,481.5)">Ureaplasma</text><path class="line" d=" M 761.5617878899955,240.55108527589542 A 257.3624870030168,257.3624870030168 0 0 0 744.3276251982775,247.74348261292187"/><line x1="716.639172124703" y1="120.86654858857838" x2="761.5617878899955" y2="240.55108527589542"/><text x="530.7187564984916" y="481.5" text-anchor="end" style="font-color:black;font-weight:normal" transform="rotate(67.34757686294944,852,481.5)">Ureaplasma parvum&#160;&#160;&#160;1%</text><path class="line" d=" M 779.2721313904997,234.62734690959138 A 257.3624870030168,257.3624870030168 0 0 0 761.5617878899955,240.55108527589542"/><line x1="743.146626244519" y1="112.00036126939239" x2="779.2721313904997" y2="234.62734690959138"/><text x="530.7187564984916" y="481.5" text-anchor="end" style="font-color:black;font-weight:normal" transform="rotate(71.50599270453358,852,481.5)">Ureaplasma urealyticum&#160;&#160;&#160;1%</text><line x1="1217.7051612257424" y1="602.490805654206" x2="935.5463504357874" y2="509.140682496288"/><path class="line" d=" M 935.5463504357874,509.140682496288 A 88,88 0 0 0 829.1659477461437,396.51408318039887"/><text x="852" y="340.35800339720083" text-anchor="middle" style="font-color:black;font-weight:normal" transform="rotate(406.6336633663366,852,481.5)">Acholeplasmataceae</text><path class="line" d=" M 931.2474581375154,347.5515877294856 A 155.63526840356252,155.63526840356252 0 0 0 811.6160925992058,331.1953866506652"/><line x1="1048.1388391442013" y1="149.97534664950615" x2="931.2474581375154" y2="347.5515877294856"/><text x="852" y="287.0501058525401" text-anchor="middle" style="font-color:black;font-weight:normal" transform="rotate(367.7853048462741,852,481.5)">Acholeplasma</text><path class="line" d=" M 878.7667460983781,272.11923171778096 A 211.08473375198727,211.08473375198727 0 0 0 797.2281836308612,277.64511790302225"/><line x1="900.8455532232358" y1="99.40949772296614" x2="878.7667460983781" y2="272.11923171778096"/><text x="553.8576331240064" y="481.5" text-anchor="end" style="font-color:black;font-weight:normal" transform="rotate(86.12298071912454,852,481.5)">Acholeplasma oculi&#160;&#160;&#160;6%</text><path class="line" d=" M 955.8921289796493,297.7523731875068 A 211.08473375198727,211.08473375198727 0 0 0 878.7667460983781,272.11923171778096"/><line x1="1041.5885475544683" y1="146.18638167204261" x2="955.8921289796493" y2="297.7523731875068"/><text x="1150.1423668759935" y="481.5" text-anchor="start" style="font-color:black;font-weight:normal" transform="rotate(288.3845752996352,852,481.5)">6%&#160;&#160;&#160;Acholeplasma laidlawii</text><line x1="1187.0546603784524" y1="291.4541777394724" x2="987.3746676995454" y2="404.7143495418148"/><path class="line" d=" M 987.3746676995454,404.7143495418148 A 155.63526840356252,155.63526840356252 0 0 0 931.2474581375154,347.5515877294856"/><text x="1122.4176342017813" y="481.5" text-anchor="start" style="font-color:black;font-weight:normal" transform="rotate(315.5237102657633,852,481.5)">8%&#160;&#160;&#160;Alteracholeplasma palmae</text><line x1="1235.6490288568004" y1="446.96794739327163" x2="1007.0086178060599" y2="467.54775369684813"/><path class="line" d=" M 1007.0086178060599,467.54775369684813 A 155.63526840356252,155.63526840356252 0 0 0 987.3746676995454,404.7143495418148"/><text x="1122.4176342017813" y="481.5" text-anchor="start" style="font-color:black;font-weight:normal" transform="rotate(342.64721208963,852,481.5)">7%&#160;&#160;&#160;Paracholeplasma brassicae</text><path class="line" d=" M 999.7852757288125,530.3041908938956 A 155.63526840356252,155.63526840356252 0 0 0 1007.0086178060599,467.54775369684813"/><line x1="1217.771131406585" y1="602.2912224855215" x2="999.7852757288125" y2="530.3041908938956"/><text x="852" y="653.7701080080899" text-anchor="middle" style="font-color:black;font-weight:normal" transform="rotate(276.5659197498697,852,481.5)">Candidatus Phytoplasma</text><path class="line" d=" M 1060.29050284652,515.7320207859723 A 211.08473375198727,211.08473375198727 0 0 0 1062.2348211589986,462.5768714164048"/><line x1="1232.100920944616" y1="543.9686313044766" x2="1060.29050284652" y2="515.7320207859723"/><text x="852" y="706.4680597272961" text-anchor="middle" style="font-color:black;font-weight:normal" transform="rotate(272.09484106305365,852,481.5)">Candidatus Phytoplasma asteris</text><path class="line" d=" M 1109.3624774230823,481.42977869650434 A 257.3624870030168,257.3624870030168 0 0 0 1108.3262414404942,458.4282062819662"/><line x1="1237.1999856615048" y1="481.39489825645717" x2="1109.3624774230823" y2="481.42977869650434"/><text x="1173.2812435015085" y="481.5" text-anchor="start" style="font-color:black;font-weight:normal" transform="rotate(357.4205315268369,852,481.5)">1%&#160;&#160;&#160;Onion yellows phytoplasma</text><path class="line" d=" M 1108.3387935432518,504.4319131597892 A 257.3624870030168,257.3624870030168 0 0 0 1109.3624774230823,481.42977869650434"/><line x1="1235.6678158604489" y1="515.8226903501568" x2="1108.3387935432518" y2="504.4319131597892"/><text x="1173.2812435015085" y="481.5" text-anchor="start" style="font-color:black;font-weight:normal" transform="rotate(362.5482021886399,852,481.5)">1%&#160;&#160;&#160;Maize bushy stunt phytoplasma</text><path class="line" d=" M 1105.9556550530724,523.2369738115125 A 257.3624870030168,257.3624870030168 0 0 0 1108.3387935432518,504.4319131597892"/><text x="1173.2812435015085" y="481.5" text-anchor="start" style="font-color:black;font-weight:normal" transform="rotate(367.2225117248567,852,481.5)">1%&#160;&#160;&#160;Aster yellows witches'-broom phytoplasma</text><line x1="1225.1535832563818" y1="577.0795129874729" x2="1056.4834495593805" y2="533.8763656570751"/><path class="line" d=" M 1056.4834495593805,533.8763656570751 A 211.08473375198727,211.08473375198727 0 0 0 1060.29050284652,515.7320207859723"/><text x="1150.1423668759935" y="481.5" text-anchor="start" style="font-color:black;font-weight:normal" transform="rotate(371.8499218342887,852,481.5)">1%&#160;&#160;&#160;Candidatus Phytoplasma mali</text><line x1="1228.95" y1="481.5" x2="1245.45" y2="481.5" class="tick" transform="rotate(375.3361125586243,852,481.5)"/><text x="1248.2" y="481.5" text-anchor="start" style="font-color:black;font-weight:normal" transform="rotate(375.3361125586243,852,481.5)">1 more</text><path class="line" d=" M 1054.5946936934188,540.763436539043 A 211.08473375198727,211.08473375198727 0 0 0 1056.4834495593805,533.8763656570751"/><line x1="1221.706869007386" y1="589.647450310932" x2="1054.5946936934188" y2="540.763436539043"/><path class="line" d=" M 852.384171305009,569.4991614301432 A 88,88 0 0 0 935.5463504357874,509.140682496288"/><line x1="853.6816225760168" y1="866.696329351036" x2="852.384171305009" y2="569.4991614301432"/><text x="852" y="583.9932718007634" text-anchor="middle" style="font-color:black;font-weight:normal" transform="rotate(324.02813965607083,852,481.5)">Entomoplasmatales</text><path class="line" d=" M 876.023711231311,635.2699517777239 A 155.63526840356252,155.63526840356252 0 0 0 999.7586212978622,530.3848299905391"/><line x1="911.4591037187378" y1="862.0833088628092" x2="876.023711231311" y2="635.2699517777239"/><text x="852" y="675.9498941474599" text-anchor="middle" style="font-color:black;font-weight:normal" transform="rotate(319.71339239187074,852,481.5)">Spiroplasmataceae</text><path class="line" d=" M 884.6966411291577,690.0370338381613 A 211.08473375198727,211.08473375198727 0 0 0 1052.401808382823,547.8014330165018"/><line x1="911.6667790184658" y1="862.0508053881395" x2="884.6966411291577" y2="690.0370338381613"/><text x="852" y="724.979161027708" text-anchor="middle" style="font-color:black;font-weight:normal" transform="rotate(319.6977592496091,852,481.5)">Spiroplasma</text><path class="line" d=" M 1081.31484289618,598.3338672811881 A 257.3624870030168,257.3624870030168 0 0 0 1096.337460547498,562.3372135193799"/><line x1="1195.2204845089686" y1="656.3677758005427" x2="1081.31484289618" y2="598.3338672811881"/><text x="1173.2812435015085" y="481.5" text-anchor="start" style="font-color:black;font-weight:normal" transform="rotate(382.65242313705056,852,481.5)">2%&#160;&#160;&#160;Spiroplasma atrichopogonis</text><path class="line" d=" M 1061.0248292253702,631.6468297490253 A 257.3624870030168,257.3624870030168 0 0 0 1081.31484289618,598.3338672811881"/><line x1="1164.8519822574951" y1="706.2280071498787" x2="1061.0248292253702" y2="631.6468297490253"/><text x="1173.2812435015085" y="481.5" text-anchor="start" style="font-color:black;font-weight:normal" transform="rotate(391.34445023449706,852,481.5)">2%&#160;&#160;&#160;Spiroplasma mirum</text><path class="line" d=" M 1040.0105539301,657.2483465847542 A 257.3624870030168,257.3624870030168 0 0 0 1061.0248292253702,631.6468297490253"/><line x1="1133.399461969862" y1="744.5463510544713" x2="1040.0105539301" y2="657.2483465847542"/><text x="1173.2812435015085" y="481.5" text-anchor="start" style="font-color:black;font-weight:normal" transform="rotate(399.37988535695666,852,481.5)">2%&#160;&#160;&#160;Spiroplasma eriocheiris</text><line x1="1098.9033196997316" y1="777.1649974570073" x2="1016.962752874413" y2="679.0417421216927"/><path class="line" d=" M 1016.962752874413,679.0417421216927 A 257.3624870030168,257.3624870030168 0 0 0 1040.0105539301,657.2483465847542"/><text x="1173.2812435015085" y="481.5" text-anchor="start" style="font-color:black;font-weight:normal" transform="rotate(406.60239708181336,852,481.5)">2%&#160;&#160;&#160;Spiroplasma sp. TU-14</text><path class="line" d=" M 997.1431772356675,694.02978101507 A 257.3624870030168,257.3624870030168 0 0 0 1016.962752874413,679.0417421216927"/><line x1="1069.2389322245078" y1="799.5979193989733" x2="997.1431772356675" y2="694.02978101507"/><text x="1173.2812435015085" y="481.5" text-anchor="start" style="font-color:black;font-weight:normal" transform="rotate(412.9025534132361,852,481.5)">2%&#160;&#160;&#160;Spiroplasma chrysopicola</text><path class="line" d=" M 975.9705549282918,707.0365851190209 A 257.3624870030168,257.3624870030168 0 0 0 997.1431772356675,694.02978101507"/><line x1="1037.5494105394555" y1="819.0654843855643" x2="975.9705549282918" y2="707.0365851190209"/><text x="1173.2812435015085" y="481.5" text-anchor="start" style="font-color:black;font-weight:normal" transform="rotate(418.4366857738405,852,481.5)">2%&#160;&#160;&#160;Spiroplasma syrphidicola</text><path class="line" d=" M 964.6224886254437,712.9122398927718 A 257.3624870030168,257.3624870030168 0 0 0 975.9705549282918,707.0365851190209"/><line x1="1020.5645142915191" y1="827.8597039519237" x2="964.6224886254437" y2="712.9122398927718"/><text x="1173.2812435015085" y="481.5" text-anchor="start" style="font-color:black;font-weight:normal" transform="rotate(422.62636789994787,852,481.5)">0.8%&#160;&#160;&#160;Spiroplasma kunkelii</text><line x1="1228.95" y1="481.5" x2="1245.45" y2="481.5" class="tick" transform="rotate(426.3470557582074,852,481.5)"/><text x="1248.2" y="481.5" text-anchor="start" style="font-color:black;font-weight:normal" transform="rotate(426.3470557582074,852,481.5)">7 more</text><path class="line" d=" M 945.7168374255023,721.1927285074371 A 257.3624870030168,257.3624870030168 0 0 0 964.6224886254437,712.9122398927718"/><line x1="992.2680172883172" y1="840.2532903347429" x2="945.7168374255023" y2="721.1927285074371"/><line x1="855.9937947467887" y1="866.6792953982865" x2="853.6136430876562" y2="637.1269029667898"/><path class="line" d=" M 853.6136430876562,637.1269029667898 A 155.63526840356252,155.63526840356252 0 0 0 876.023711231311,635.2699517777239"/><text x="852" y="653.7701080080899" text-anchor="middle" style="font-color:black;font-weight:normal" transform="rotate(355.2631578947368,852,481.5)">Mesoplasma</text><path class="line" d=" M 854.303731401293,692.5721621739306 A 211.08473375198727,211.08473375198727 0 0 0 884.5828376884775,690.0548453316626"/><line x1="856.2039863329042" y1="866.6770586352629" x2="854.303731401293" y2="692.5721621739306"/><text x="1150.1423668759935" y="481.5" text-anchor="start" style="font-color:black;font-weight:normal" transform="rotate(445.2475247524752,852,481.5)">2%&#160;&#160;&#160;Mesoplasma florum</text></svg>